<?xml version="1.0" standalone="no"?><svg xmlns="http://www.w3.org/2000/svg" width="500" height="500"><polygon points="2.5,2.5 52,2.5 52,52 2.5,52" fill="white"></polygon><polygon points="2.5,52 52,52 52,101.5 2.5,101.5" fill="white"></polygon><polygon points="2.5,101.5 52,101.5 52,151 2.5,151" fill="white"></polygon><polygon points="2.5,151 52,151 52,200.5 2.5,200.5" fill="white"></polygon><polygon points="2.5,200.5 52,200.5 52,250 2.5,250" fill="white"></polygon><polygon points="2.5,250 52,250 52,299.5 2.5,299.5" fill="white"></polygon><polygon points="2.5,299.5 52,299.5 52,349 2.5,349" fill="white"></polygon><polygon points="2.5,349 52,349 52,398.5 2.5,398.5" fill="white"></polygon><polygon points="2.5,398.5 52,398.5 52,448 2.5,448" fill="white"></polygon><polygon points="2.5,448 52,448 52,497.5 2.5,497.5" fill="white"></polygon><polygon points="52,2.5 101.5,2.5 101.5,52 52,52" fill="white"></polygon><polygon points="52,52 101.5,52 101.5,101.5 52,101.5" fill="white"></polygon><polygon points="52,101.5 101.5,101.5 101.5,151 52,151" fill="white"></polygon><polygon points="52,151 101.5,151 101.5,200.5 52,200.5" fill="white"></polygon><polygon points="52,200.5 101.5,200.5 101.5,250 52,250" fill="white"></polygon><polygon points="52,250 101.5,250 101.5,299.5 52,299.5" fill="white"></polygon><polygon points="52,299.5 101.5,299.5 101.5,349 52,349" fill="white"></polygon><polygon points="52,349 101.5,349 101.5,398.5 52,398.5" fill="white"></polygon><polygon points="52,398.5 101.5,398.5 101.5,448 52,448" fill="white"></polygon><polygon points="52,448 101.5,448 101.5,497.5 52,497.5" fill="white"></polygon><polygon points="101.5,2.5 151,2.5 151,52 101.5,52" fill="white"></polygon><polygon points="101.5,52 151,52 151,101.5 101.5,101.5" fill="white"></polygon><polygon points="101.5,101.5 151,101.5 151,151 101.5,151" fill="white"></polygon><polygon points="101.5,151 151,151 151,200.5 101.5,200.5" fill="white"></polygon><polygon points="101.5,200.5 151,200.5 151,250 101.5,250" fill="white"></polygon><polygon points="101.5,250 151,250 151,299.5 101.5,299.5" fill="white"></polygon><polygon points="101.5,299.5 151,299.5 151,349 101.5,349" fill="white"></polygon><polygon points="101.5,349 151,349 151,398.5 101.5,398.5" fill="white"></polygon><polygon points="101.5,398.5 151,398.5 151,448 101.5,448" fill="white"></polygon><polygon points="101.5,448 151,448 151,497.5 101.5,497.5" fill="white"></polygon><polygon points="151,2.5 200.5,2.5 200.5,52 151,52" fill="white"></polygon><polygon points="151,52 200.5,52 200.5,101.5 151,101.5" fill="white"></polygon><polygon points="151,101.5 200.5,101.5 200.5,151 151,151" fill="white"></polygon><polygon points="151,151 200.5,151 200.5,200.5 151,200.5" fill="white"></polygon><polygon points="151,200.5 200.5,200.5 200.5,250 151,250" fill="white"></polygon><polygon points="151,250 200.5,250 200.5,299.5 151,299.5" fill="white"></polygon><polygon points="151,299.5 200.5,299.5 200.5,349 151,349" fill="white"></polygon><polygon points="151,349 200.5,349 200.5,398.5 151,398.5" fill="white"></polygon><polygon points="151,398.5 200.5,398.5 200.5,448 151,448" fill="white"></polygon><polygon points="151,448 200.5,448 200.5,497.5 151,497.5" fill="white"></polygon><polygon points="200.5,2.5 250,2.5 250,52 200.5,52" fill="white"></polygon><polygon points="200.5,52 250,52 250,101.5 200.5,101.5" fill="white"></polygon><polygon points="200.5,101.5 250,101.5 250,151 200.5,151" fill="white"></polygon><polygon points="200.5,151 250,151 250,200.5 200.5,200.5" fill="white"></polygon><polygon points="200.5,299.5 250,299.5 250,349 200.5,349" fill="white"></polygon><polygon points="200.5,349 250,349 250,398.5 200.5,398.5" fill="white"></polygon><polygon points="200.5,398.5 250,398.5 250,448 200.5,448" fill="white"></polygon><polygon points="200.5,448 250,448 250,497.5 200.5,497.5" fill="white"></polygon><polygon points="250,2.5 299.5,2.5 299.5,52 250,52" fill="white"></polygon><polygon points="250,52 299.5,52 299.5,101.5 250,101.5" fill="white"></polygon><polygon points="250,101.5 299.5,101.5 299.5,151 250,151" fill="white"></polygon><polygon points="250,151 299.5,151 299.5,200.5 250,200.5" fill="white"></polygon><polygon points="250,299.5 299.5,299.5 299.5,349 250,349" fill="white"></polygon><polygon points="250,349 299.5,349 299.5,398.5 250,398.5" fill="white"></polygon><polygon points="250,398.5 299.5,398.5 299.5,448 250,448" fill="white"></polygon><polygon points="250,448 299.5,448 299.5,497.5 250,497.5" fill="white"></polygon><polygon points="299.5,2.5 349,2.5 349,52 299.5,52" fill="white"></polygon><polygon points="299.5,52 349,52 349,101.5 299.5,101.5" fill="white"></polygon><polygon points="299.5,101.5 349,101.5 349,151 299.5,151" fill="white"></polygon><polygon points="299.5,151 349,151 349,200.5 299.5,200.5" fill="white"></polygon><polygon points="299.5,200.5 349,200.5 349,250 299.5,250" fill="white"></polygon><polygon points="299.5,250 349,250 349,299.5 299.5,299.5" fill="white"></polygon><polygon points="299.5,299.5 349,299.5 349,349 299.5,349" fill="white"></polygon><polygon points="299.5,349 349,349 349,398.5 299.5,398.5" fill="white"></polygon><polygon points="299.5,398.5 349,398.5 349,448 299.5,448" fill="white"></polygon><polygon points="299.5,448 349,448 349,497.5 299.5,497.5" fill="white"></polygon><polygon points="349,2.5 398.5,2.5 398.5,52 349,52" fill="white"></polygon><polygon points="349,52 398.5,52 398.5,101.5 349,101.5" fill="white"></polygon><polygon points="349,101.5 398.5,101.5 398.5,151 349,151" fill="white"></polygon><polygon points="349,151 398.5,151 398.5,200.5 349,200.5" fill="white"></polygon><polygon points="349,200.5 398.5,200.5 398.5,250 349,250" fill="white"></polygon><polygon points="349,250 398.5,250 398.5,299.5 349,299.5" fill="white"></polygon><polygon points="349,299.5 398.5,299.5 398.5,349 349,349" fill="white"></polygon><polygon points="349,349 398.5,349 398.5,398.5 349,398.5" fill="white"></polygon><polygon points="349,398.5 398.5,398.5 398.5,448 349,448" fill="white"></polygon><polygon points="349,448 398.5,448 398.5,497.5 349,497.5" fill="white"></polygon><polygon points="398.5,2.5 448,2.5 448,52 398.5,52" fill="white"></polygon><polygon points="398.5,52 448,52 448,101.5 398.5,101.5" fill="white"></polygon><polygon points="398.5,101.5 448,101.5 448,151 398.5,151" fill="white"></polygon><polygon points="398.5,151 448,151 448,200.5 398.5,200.5" fill="white"></polygon><polygon points="398.5,200.5 448,200.5 448,250 398.5,250" fill="white"></polygon><polygon points="398.5,250 448,250 448,299.5 398.5,299.5" fill="white"></polygon><polygon points="398.5,299.5 448,299.5 448,349 398.5,349" fill="white"></polygon><polygon points="398.5,349 448,349 448,398.5 398.5,398.5" fill="white"></polygon><polygon points="398.5,398.5 448,398.5 448,448 398.5,448" fill="white"></polygon><polygon points="398.5,448 448,448 448,497.5 398.5,497.5" fill="white"></polygon><polygon points="448,2.5 497.5,2.5 497.5,52 448,52" fill="white"></polygon><polygon points="448,52 497.5,52 497.5,101.5 448,101.5" fill="white"></polygon><polygon points="448,101.5 497.5,101.5 497.5,151 448,151" fill="white"></polygon><polygon points="448,151 497.5,151 497.5,200.5 448,200.5" fill="white"></polygon><polygon points="448,200.5 497.5,200.5 497.5,250 448,250" fill="white"></polygon><polygon points="448,250 497.5,250 497.5,299.5 448,299.5" fill="white"></polygon><polygon points="448,299.5 497.5,299.5 497.5,349 448,349" fill="white"></polygon><polygon points="448,349 497.5,349 497.5,398.5 448,398.5" fill="white"></polygon><polygon points="448,398.5 497.5,398.5 497.5,448 448,448" fill="white"></polygon><polygon points="448,448 497.5,448 497.5,497.5 448,497.5" fill="white"></polygon><line x1="2.5" y1="2.5" x2="52" y2="2.5" stroke="black" stroke-width="5" stroke-linecap="round"></line><line x1="2.5" y1="2.5" x2="2.5" y2="52" stroke="black" stroke-width="5" stroke-linecap="round"></line><line x1="2.5" y1="52" x2="2.5" y2="101.5" stroke="black" stroke-width="5" stroke-linecap="round"></line><line x1="2.5" y1="151" x2="52" y2="151" stroke="black" stroke-width="5" stroke-linecap="round"></line><line x1="52" y1="101.5" x2="52" y2="151" stroke="black" stroke-width="5" stroke-linecap="round"></line><line x1="2.5" y1="101.5" x2="2.5" y2="151" stroke="black" stroke-width="5" stroke-linecap="round"></line><line x1="2.5" y1="151" x2="52" y2="151" stroke="black" stroke-width="5" stroke-linecap="round"></line><line x1="2.5" y1="151" x2="2.5" y2="200.5" stroke="black" stroke-width="5" stroke-linecap="round"></line><line x1="52" y1="200.5" x2="52" y2="250" stroke="black" stroke-width="5" stroke-linecap="round"></line><line x1="2.5" y1="200.5" x2="2.5" y2="250" stroke="black" stroke-width="5" stroke-linecap="round"></line><line x1="2.5" y1="250" x2="2.5" y2="299.5" stroke="black" stroke-width="5" stroke-linecap="round"></line><line x1="52" y1="299.5" x2="52" y2="349" stroke="black" stroke-width="5" stroke-linecap="round"></line><line x1="2.5" y1="299.5" x2="2.5" y2="349" stroke="black" stroke-width="5" stroke-linecap="round"></line><line x1="52" y1="349" x2="52" y2="398.5" stroke="black" stroke-width="5" stroke-linecap="round"></line><line x1="2.5" y1="349" x2="2.5" y2="398.5" stroke="black" stroke-width="5" stroke-linecap="round"></line><line x1="52" y1="398.5" x2="52" y2="448" stroke="black" stroke-width="5" stroke-linecap="round"></line><line x1="2.5" y1="398.5" x2="2.5" y2="448" stroke="black" stroke-width="5" stroke-linecap="round"></line><line x1="2.5" y1="497.5" x2="52" y2="497.5" stroke="black" stroke-width="5" stroke-linecap="round"></line><line x1="2.5" y1="448" x2="2.5" y2="497.5" stroke="black" stroke-width="5" stroke-linecap="round"></line><line x1="52" y1="2.5" x2="101.5" y2="2.5" stroke="black" stroke-width="5" stroke-linecap="round"></line><line x1="52" y1="52" x2="101.5" y2="52" stroke="black" stroke-width="5" stroke-linecap="round"></line><line x1="101.5" y1="2.5" x2="101.5" y2="52" stroke="black" stroke-width="5" stroke-linecap="round"></line><line x1="52" y1="52" x2="101.5" y2="52" stroke="black" stroke-width="5" stroke-linecap="round"></line><line x1="52" y1="101.5" x2="101.5" y2="101.5" stroke="black" stroke-width="5" stroke-linecap="round"></line><line x1="52" y1="101.5" x2="101.5" y2="101.5" stroke="black" stroke-width="5" stroke-linecap="round"></line><line x1="52" y1="101.5" x2="52" y2="151" stroke="black" stroke-width="5" stroke-linecap="round"></line><line x1="101.5" y1="151" x2="101.5" y2="200.5" stroke="black" stroke-width="5" stroke-linecap="round"></line><line x1="52" y1="250" x2="101.5" y2="250" stroke="black" stroke-width="5" stroke-linecap="round"></line><line x1="101.5" y1="200.5" x2="101.5" y2="250" stroke="black" stroke-width="5" stroke-linecap="round"></line><line x1="52" y1="200.5" x2="52" y2="250" stroke="black" stroke-width="5" stroke-linecap="round"></line><line x1="52" y1="250" x2="101.5" y2="250" stroke="black" stroke-width="5" stroke-linecap="round"></line><line x1="101.5" y1="250" x2="101.5" y2="299.5" stroke="black" stroke-width="5" stroke-linecap="round"></line><line x1="52" y1="349" x2="101.5" y2="349" stroke="black" stroke-width="5" stroke-linecap="round"></line><line x1="52" y1="299.5" x2="52" y2="349" stroke="black" stroke-width="5" stroke-linecap="round"></line><line x1="52" y1="349" x2="101.5" y2="349" stroke="black" stroke-width="5" stroke-linecap="round"></line><line x1="52" y1="349" x2="52" y2="398.5" stroke="black" stroke-width="5" stroke-linecap="round"></line><line x1="52" y1="448" x2="101.5" y2="448" stroke="black" stroke-width="5" stroke-linecap="round"></line><line x1="52" y1="398.5" x2="52" y2="448" stroke="black" stroke-width="5" stroke-linecap="round"></line><line x1="52" y1="448" x2="101.5" y2="448" stroke="black" stroke-width="5" stroke-linecap="round"></line><line x1="52" y1="497.5" x2="101.5" y2="497.5" stroke="black" stroke-width="5" stroke-linecap="round"></line><line x1="101.5" y1="2.5" x2="151" y2="2.5" stroke="black" stroke-width="5" stroke-linecap="round"></line><line x1="101.5" y1="2.5" x2="101.5" y2="52" stroke="black" stroke-width="5" stroke-linecap="round"></line><line x1="101.5" y1="101.5" x2="151" y2="101.5" stroke="black" stroke-width="5" stroke-linecap="round"></line><line x1="151" y1="52" x2="151" y2="101.5" stroke="black" stroke-width="5" stroke-linecap="round"></line><line x1="101.5" y1="101.5" x2="151" y2="101.5" stroke="black" stroke-width="5" stroke-linecap="round"></line><line x1="101.5" y1="200.5" x2="151" y2="200.5" stroke="black" stroke-width="5" stroke-linecap="round"></line><line x1="151" y1="151" x2="151" y2="200.5" stroke="black" stroke-width="5" stroke-linecap="round"></line><line x1="101.5" y1="151" x2="101.5" y2="200.5" stroke="black" stroke-width="5" stroke-linecap="round"></line><line x1="101.5" y1="200.5" x2="151" y2="200.5" stroke="black" stroke-width="5" stroke-linecap="round"></line><line x1="101.5" y1="200.5" x2="101.5" y2="250" stroke="black" stroke-width="5" stroke-linecap="round"></line><line x1="101.5" y1="299.5" x2="151" y2="299.5" stroke="black" stroke-width="5" stroke-linecap="round"></line><line x1="101.5" y1="250" x2="101.5" y2="299.5" stroke="black" stroke-width="5" stroke-linecap="round"></line><line x1="101.5" y1="299.5" x2="151" y2="299.5" stroke="black" stroke-width="5" stroke-linecap="round"></line><line x1="151" y1="299.5" x2="151" y2="349" stroke="black" stroke-width="5" stroke-linecap="round"></line><line x1="101.5" y1="398.5" x2="151" y2="398.5" stroke="black" stroke-width="5" stroke-linecap="round"></line><line x1="151" y1="349" x2="151" y2="398.5" stroke="black" stroke-width="5" stroke-linecap="round"></line><line x1="101.5" y1="398.5" x2="151" y2="398.5" stroke="black" stroke-width="5" stroke-linecap="round"></line><line x1="101.5" y1="448" x2="151" y2="448" stroke="black" stroke-width="5" stroke-linecap="round"></line><line x1="101.5" y1="448" x2="151" y2="448" stroke="black" stroke-width="5" stroke-linecap="round"></line><line x1="101.5" y1="497.5" x2="151" y2="497.5" stroke="black" stroke-width="5" stroke-linecap="round"></line><line x1="151" y1="2.5" x2="200.5" y2="2.5" stroke="black" stroke-width="5" stroke-linecap="round"></line><line x1="200.5" y1="52" x2="200.5" y2="101.5" stroke="black" stroke-width="5" stroke-linecap="round"></line><line x1="151" y1="52" x2="151" y2="101.5" stroke="black" stroke-width="5" stroke-linecap="round"></line><line x1="151" y1="151" x2="200.5" y2="151" stroke="black" stroke-width="5" stroke-linecap="round"></line><line x1="200.5" y1="101.5" x2="200.5" y2="151" stroke="black" stroke-width="5" stroke-linecap="round"></line><line x1="151" y1="151" x2="200.5" y2="151" stroke="black" stroke-width="5" stroke-linecap="round"></line><line x1="151" y1="151" x2="151" y2="200.5" stroke="black" stroke-width="5" stroke-linecap="round"></line><line x1="151" y1="250" x2="200.5" y2="250" stroke="black" stroke-width="5" stroke-linecap="round"></line><line x1="200.5" y1="200.5" x2="200.5" y2="250" stroke="black" stroke-width="5" stroke-linecap="round"></line><line x1="151" y1="250" x2="200.5" y2="250" stroke="black" stroke-width="5" stroke-linecap="round"></line><line x1="200.5" y1="250" x2="200.5" y2="299.5" stroke="black" stroke-width="5" stroke-linecap="round"></line><line x1="200.5" y1="299.5" x2="200.5" y2="349" stroke="black" stroke-width="5" stroke-linecap="round"></line><line x1="151" y1="299.5" x2="151" y2="349" stroke="black" stroke-width="5" stroke-linecap="round"></line><line x1="151" y1="398.5" x2="200.5" y2="398.5" stroke="black" stroke-width="5" stroke-linecap="round"></line><line x1="151" y1="349" x2="151" y2="398.5" stroke="black" stroke-width="5" stroke-linecap="round"></line><line x1="151" y1="398.5" x2="200.5" y2="398.5" stroke="black" stroke-width="5" stroke-linecap="round"></line><line x1="151" y1="448" x2="200.5" y2="448" stroke="black" stroke-width="5" stroke-linecap="round"></line><line x1="151" y1="448" x2="200.5" y2="448" stroke="black" stroke-width="5" stroke-linecap="round"></line><line x1="151" y1="497.5" x2="200.5" y2="497.5" stroke="black" stroke-width="5" stroke-linecap="round"></line><line x1="200.5" y1="2.5" x2="250" y2="2.5" stroke="black" stroke-width="5" stroke-linecap="round"></line><line x1="250" y1="52" x2="250" y2="101.5" stroke="black" stroke-width="5" stroke-linecap="round"></line><line x1="200.5" y1="52" x2="200.5" y2="101.5" stroke="black" stroke-width="5" stroke-linecap="round"></line><line x1="200.5" y1="151" x2="250" y2="151" stroke="black" stroke-width="5" stroke-linecap="round"></line><line x1="250" y1="101.5" x2="250" y2="151" stroke="black" stroke-width="5" stroke-linecap="round"></line><line x1="200.5" y1="101.5" x2="200.5" y2="151" stroke="black" stroke-width="5" stroke-linecap="round"></line><line x1="200.5" y1="151" x2="250" y2="151" stroke="black" stroke-width="5" stroke-linecap="round"></line><line x1="200.5" y1="200.5" x2="250" y2="200.5" stroke="black" stroke-width="5" stroke-linecap="round"></line><line x1="200.5" y1="299.5" x2="250" y2="299.5" stroke="black" stroke-width="5" stroke-linecap="round"></line><line x1="200.5" y1="299.5" x2="200.5" y2="349" stroke="black" stroke-width="5" stroke-linecap="round"></line><line x1="200.5" y1="398.5" x2="250" y2="398.5" stroke="black" stroke-width="5" stroke-linecap="round"></line><line x1="250" y1="349" x2="250" y2="398.5" stroke="black" stroke-width="5" stroke-linecap="round"></line><line x1="200.5" y1="398.5" x2="250" y2="398.5" stroke="black" stroke-width="5" stroke-linecap="round"></line><line x1="200.5" y1="448" x2="250" y2="448" stroke="black" stroke-width="5" stroke-linecap="round"></line><line x1="200.5" y1="448" x2="250" y2="448" stroke="black" stroke-width="5" stroke-linecap="round"></line><line x1="200.5" y1="497.5" x2="250" y2="497.5" stroke="black" stroke-width="5" stroke-linecap="round"></line><line x1="250" y1="2.5" x2="299.5" y2="2.5" stroke="black" stroke-width="5" stroke-linecap="round"></line><line x1="250" y1="52" x2="299.5" y2="52" stroke="black" stroke-width="5" stroke-linecap="round"></line><line x1="250" y1="52" x2="299.5" y2="52" stroke="black" stroke-width="5" stroke-linecap="round"></line><line x1="250" y1="52" x2="250" y2="101.5" stroke="black" stroke-width="5" stroke-linecap="round"></line><line x1="299.5" y1="101.5" x2="299.5" y2="151" stroke="black" stroke-width="5" stroke-linecap="round"></line><line x1="250" y1="101.5" x2="250" y2="151" stroke="black" stroke-width="5" stroke-linecap="round"></line><line x1="299.5" y1="151" x2="299.5" y2="200.5" stroke="black" stroke-width="5" stroke-linecap="round"></line><line x1="250" y1="299.5" x2="299.5" y2="299.5" stroke="black" stroke-width="5" stroke-linecap="round"></line><line x1="299.5" y1="299.5" x2="299.5" y2="349" stroke="black" stroke-width="5" stroke-linecap="round"></line><line x1="250" y1="398.5" x2="299.5" y2="398.5" stroke="black" stroke-width="5" stroke-linecap="round"></line><line x1="250" y1="349" x2="250" y2="398.5" stroke="black" stroke-width="5" stroke-linecap="round"></line><line x1="250" y1="398.5" x2="299.5" y2="398.5" stroke="black" stroke-width="5" stroke-linecap="round"></line><line x1="250" y1="448" x2="299.5" y2="448" stroke="black" stroke-width="5" stroke-linecap="round"></line><line x1="250" y1="448" x2="299.5" y2="448" stroke="black" stroke-width="5" stroke-linecap="round"></line><line x1="250" y1="497.5" x2="299.5" y2="497.5" stroke="black" stroke-width="5" stroke-linecap="round"></line><line x1="299.5" y1="448" x2="299.5" y2="497.5" stroke="black" stroke-width="5" stroke-linecap="round"></line><line x1="299.5" y1="2.5" x2="349" y2="2.5" stroke="black" stroke-width="5" stroke-linecap="round"></line><line x1="299.5" y1="52" x2="349" y2="52" stroke="black" stroke-width="5" stroke-linecap="round"></line><line x1="299.5" y1="52" x2="349" y2="52" stroke="black" stroke-width="5" stroke-linecap="round"></line><line x1="349" y1="52" x2="349" y2="101.5" stroke="black" stroke-width="5" stroke-linecap="round"></line><line x1="299.5" y1="151" x2="349" y2="151" stroke="black" stroke-width="5" stroke-linecap="round"></line><line x1="299.5" y1="101.5" x2="299.5" y2="151" stroke="black" stroke-width="5" stroke-linecap="round"></line><line x1="299.5" y1="151" x2="349" y2="151" stroke="black" stroke-width="5" stroke-linecap="round"></line><line x1="299.5" y1="151" x2="299.5" y2="200.5" stroke="black" stroke-width="5" stroke-linecap="round"></line><line x1="299.5" y1="250" x2="349" y2="250" stroke="black" stroke-width="5" stroke-linecap="round"></line><line x1="349" y1="200.5" x2="349" y2="250" stroke="black" stroke-width="5" stroke-linecap="round"></line><line x1="299.5" y1="200.5" x2="299.5" y2="250" stroke="black" stroke-width="5" stroke-linecap="round"></line><line x1="299.5" y1="250" x2="349" y2="250" stroke="black" stroke-width="5" stroke-linecap="round"></line><line x1="299.5" y1="250" x2="299.5" y2="299.5" stroke="black" stroke-width="5" stroke-linecap="round"></line><line x1="349" y1="299.5" x2="349" y2="349" stroke="black" stroke-width="5" stroke-linecap="round"></line><line x1="299.5" y1="299.5" x2="299.5" y2="349" stroke="black" stroke-width="5" stroke-linecap="round"></line><line x1="299.5" y1="398.5" x2="349" y2="398.5" stroke="black" stroke-width="5" stroke-linecap="round"></line><line x1="349" y1="349" x2="349" y2="398.5" stroke="black" stroke-width="5" stroke-linecap="round"></line><line x1="299.5" y1="398.5" x2="349" y2="398.5" stroke="black" stroke-width="5" stroke-linecap="round"></line><line x1="349" y1="398.5" x2="349" y2="448" stroke="black" stroke-width="5" stroke-linecap="round"></line><line x1="299.5" y1="497.5" x2="349" y2="497.5" stroke="black" stroke-width="5" stroke-linecap="round"></line><line x1="299.5" y1="448" x2="299.5" y2="497.5" stroke="black" stroke-width="5" stroke-linecap="round"></line><line x1="349" y1="2.5" x2="398.5" y2="2.5" stroke="black" stroke-width="5" stroke-linecap="round"></line><line x1="349" y1="52" x2="398.5" y2="52" stroke="black" stroke-width="5" stroke-linecap="round"></line><line x1="349" y1="52" x2="398.5" y2="52" stroke="black" stroke-width="5" stroke-linecap="round"></line><line x1="349" y1="52" x2="349" y2="101.5" stroke="black" stroke-width="5" stroke-linecap="round"></line><line x1="349" y1="151" x2="398.5" y2="151" stroke="black" stroke-width="5" stroke-linecap="round"></line><line x1="398.5" y1="101.5" x2="398.5" y2="151" stroke="black" stroke-width="5" stroke-linecap="round"></line><line x1="349" y1="151" x2="398.5" y2="151" stroke="black" stroke-width="5" stroke-linecap="round"></line><line x1="398.5" y1="151" x2="398.5" y2="200.5" stroke="black" stroke-width="5" stroke-linecap="round"></line><line x1="398.5" y1="200.5" x2="398.5" y2="250" stroke="black" stroke-width="5" stroke-linecap="round"></line><line x1="349" y1="200.5" x2="349" y2="250" stroke="black" stroke-width="5" stroke-linecap="round"></line><line x1="349" y1="299.5" x2="398.5" y2="299.5" stroke="black" stroke-width="5" stroke-linecap="round"></line><line x1="349" y1="299.5" x2="398.5" y2="299.5" stroke="black" stroke-width="5" stroke-linecap="round"></line><line x1="349" y1="299.5" x2="349" y2="349" stroke="black" stroke-width="5" stroke-linecap="round"></line><line x1="398.5" y1="349" x2="398.5" y2="398.5" stroke="black" stroke-width="5" stroke-linecap="round"></line><line x1="349" y1="349" x2="349" y2="398.5" stroke="black" stroke-width="5" stroke-linecap="round"></line><line x1="398.5" y1="398.5" x2="398.5" y2="448" stroke="black" stroke-width="5" stroke-linecap="round"></line><line x1="349" y1="398.5" x2="349" y2="448" stroke="black" stroke-width="5" stroke-linecap="round"></line><line x1="349" y1="497.5" x2="398.5" y2="497.5" stroke="black" stroke-width="5" stroke-linecap="round"></line><line x1="398.5" y1="2.5" x2="448" y2="2.5" stroke="black" stroke-width="5" stroke-linecap="round"></line><line x1="398.5" y1="52" x2="448" y2="52" stroke="black" stroke-width="5" stroke-linecap="round"></line><line x1="398.5" y1="52" x2="448" y2="52" stroke="black" stroke-width="5" stroke-linecap="round"></line><line x1="448" y1="52" x2="448" y2="101.5" stroke="black" stroke-width="5" stroke-linecap="round"></line><line x1="448" y1="101.5" x2="448" y2="151" stroke="black" stroke-width="5" stroke-linecap="round"></line><line x1="398.5" y1="101.5" x2="398.5" y2="151" stroke="black" stroke-width="5" stroke-linecap="round"></line><line x1="448" y1="151" x2="448" y2="200.5" stroke="black" stroke-width="5" stroke-linecap="round"></line><line x1="398.5" y1="151" x2="398.5" y2="200.5" stroke="black" stroke-width="5" stroke-linecap="round"></line><line x1="398.5" y1="250" x2="448" y2="250" stroke="black" stroke-width="5" stroke-linecap="round"></line><line x1="448" y1="200.5" x2="448" y2="250" stroke="black" stroke-width="5" stroke-linecap="round"></line><line x1="398.5" y1="200.5" x2="398.5" y2="250" stroke="black" stroke-width="5" stroke-linecap="round"></line><line x1="398.5" y1="250" x2="448" y2="250" stroke="black" stroke-width="5" stroke-linecap="round"></line><line x1="398.5" y1="299.5" x2="448" y2="299.5" stroke="black" stroke-width="5" stroke-linecap="round"></line><line x1="398.5" y1="299.5" x2="448" y2="299.5" stroke="black" stroke-width="5" stroke-linecap="round"></line><line x1="448" y1="299.5" x2="448" y2="349" stroke="black" stroke-width="5" stroke-linecap="round"></line><line x1="448" y1="349" x2="448" y2="398.5" stroke="black" stroke-width="5" stroke-linecap="round"></line><line x1="398.5" y1="349" x2="398.5" y2="398.5" stroke="black" stroke-width="5" stroke-linecap="round"></line><line x1="398.5" y1="448" x2="448" y2="448" stroke="black" stroke-width="5" stroke-linecap="round"></line><line x1="398.5" y1="398.5" x2="398.5" y2="448" stroke="black" stroke-width="5" stroke-linecap="round"></line><line x1="398.5" y1="448" x2="448" y2="448" stroke="black" stroke-width="5" stroke-linecap="round"></line><line x1="398.5" y1="497.5" x2="448" y2="497.5" stroke="black" stroke-width="5" stroke-linecap="round"></line><line x1="448" y1="2.5" x2="497.5" y2="2.5" stroke="black" stroke-width="5" stroke-linecap="round"></line><line x1="497.5" y1="2.5" x2="497.5" y2="52" stroke="black" stroke-width="5" stroke-linecap="round"></line><line x1="497.5" y1="52" x2="497.5" y2="101.5" stroke="black" stroke-width="5" stroke-linecap="round"></line><line x1="448" y1="52" x2="448" y2="101.5" stroke="black" stroke-width="5" stroke-linecap="round"></line><line x1="497.5" y1="101.5" x2="497.5" y2="151" stroke="black" stroke-width="5" stroke-linecap="round"></line><line x1="448" y1="101.5" x2="448" y2="151" stroke="black" stroke-width="5" stroke-linecap="round"></line><line x1="497.5" y1="151" x2="497.5" y2="200.5" stroke="black" stroke-width="5" stroke-linecap="round"></line><line x1="448" y1="151" x2="448" y2="200.5" stroke="black" stroke-width="5" stroke-linecap="round"></line><line x1="448" y1="250" x2="497.5" y2="250" stroke="black" stroke-width="5" stroke-linecap="round"></line><line x1="448" y1="200.5" x2="448" y2="250" stroke="black" stroke-width="5" stroke-linecap="round"></line><line x1="448" y1="250" x2="497.5" y2="250" stroke="black" stroke-width="5" stroke-linecap="round"></line><line x1="497.5" y1="250" x2="497.5" y2="299.5" stroke="black" stroke-width="5" stroke-linecap="round"></line><line x1="497.5" y1="299.5" x2="497.5" y2="349" stroke="black" stroke-width="5" stroke-linecap="round"></line><line x1="448" y1="299.5" x2="448" y2="349" stroke="black" stroke-width="5" stroke-linecap="round"></line><line x1="497.5" y1="349" x2="497.5" y2="398.5" stroke="black" stroke-width="5" stroke-linecap="round"></line><line x1="448" y1="349" x2="448" y2="398.5" stroke="black" stroke-width="5" stroke-linecap="round"></line><line x1="448" y1="448" x2="497.5" y2="448" stroke="black" stroke-width="5" stroke-linecap="round"></line><line x1="497.5" y1="398.5" x2="497.5" y2="448" stroke="black" stroke-width="5" stroke-linecap="round"></line><line x1="448" y1="448" x2="497.5" y2="448" stroke="black" stroke-width="5" stroke-linecap="round"></line><line x1="448" y1="497.5" x2="497.5" y2="497.5" stroke="black" stroke-width="5" stroke-linecap="round"></line><line x1="497.5" y1="448" x2="497.5" y2="497.5" stroke="black" stroke-width="5" stroke-linecap="round"></line><line x1="571.75" y1="225.25" x2="522.25" y2="225.25" stroke="#006BB7" stroke-width="5" stroke-linecap="round"></line><line x1="522.25" y1="225.25" x2="472.75" y2="225.25" stroke="#006BB7" stroke-width="5" stroke-linecap="round"></line><line x1="472.75" y1="225.25" x2="472.75" y2="175.75" stroke="#006BB7" stroke-width="5" stroke-linecap="round"></line><line x1="472.75" y1="175.75" x2="472.75" y2="126.25" stroke="#006BB7" stroke-width="5" stroke-linecap="round"></line><line x1="472.75" y1="126.25" x2="472.75" y2="76.75" stroke="#006BB7" stroke-width="5" stroke-linecap="round"></line><line x1="472.75" y1="76.75" x2="472.75" y2="27.25" stroke="#006BB7" stroke-width="5" stroke-linecap="round"></line><line x1="472.75" y1="27.25" x2="423.25" y2="27.25" stroke="#006BB7" stroke-width="5" stroke-linecap="round"></line><line x1="423.25" y1="27.25" x2="373.75" y2="27.25" stroke="#006BB7" stroke-width="5" stroke-linecap="round"></line><line x1="373.75" y1="27.25" x2="324.25" y2="27.25" stroke="#006BB7" stroke-width="5" stroke-linecap="round"></line><line x1="324.25" y1="27.25" x2="274.75" y2="27.25" stroke="#006BB7" stroke-width="5" stroke-linecap="round"></line><line x1="274.75" y1="27.25" x2="225.25" y2="27.25" stroke="#006BB7" stroke-width="5" stroke-linecap="round"></line><line x1="225.25" y1="27.25" x2="175.75" y2="27.25" stroke="#006BB7" stroke-width="5" stroke-linecap="round"></line><line x1="175.75" y1="27.25" x2="175.75" y2="76.75" stroke="#006BB7" stroke-width="5" stroke-linecap="round"></line><line x1="175.75" y1="76.75" x2="175.75" y2="126.25" stroke="#006BB7" stroke-width="5" stroke-linecap="round"></line><line x1="175.75" y1="126.25" x2="126.25" y2="126.25" stroke="#006BB7" stroke-width="5" stroke-linecap="round"></line><line x1="126.25" y1="126.25" x2="76.75" y2="126.25" stroke="#006BB7" stroke-width="5" stroke-linecap="round"></line><line x1="76.75" y1="126.25" x2="76.75" y2="175.75" stroke="#006BB7" stroke-width="5" stroke-linecap="round"></line><line x1="76.75" y1="175.75" x2="27.25" y2="175.75" stroke="#006BB7" stroke-width="5" stroke-linecap="round"></line><line x1="27.25" y1="175.75" x2="27.25" y2="225.25" stroke="#006BB7" stroke-width="5" stroke-linecap="round"></line><line x1="27.25" y1="225.25" x2="27.25" y2="274.75" stroke="#006BB7" stroke-width="5" stroke-linecap="round"></line><line x1="27.25" y1="274.75" x2="76.75" y2="274.75" stroke="#006BB7" stroke-width="5" stroke-linecap="round"></line><line x1="76.75" y1="274.75" x2="76.75" y2="324.25" stroke="#006BB7" stroke-width="5" stroke-linecap="round"></line><line x1="76.75" y1="324.25" x2="126.25" y2="324.25" stroke="#006BB7" stroke-width="5" stroke-linecap="round"></line><line x1="126.25" y1="324.25" x2="126.25" y2="373.75" stroke="#006BB7" stroke-width="5" stroke-linecap="round"></line><line x1="126.25" y1="373.75" x2="76.75" y2="373.75" stroke="#006BB7" stroke-width="5" stroke-linecap="round"></line><line x1="76.75" y1="373.75" x2="76.75" y2="423.25" stroke="#006BB7" stroke-width="5" stroke-linecap="round"></line><line x1="76.75" y1="423.25" x2="126.25" y2="423.25" stroke="#006BB7" stroke-width="5" stroke-linecap="round"></line><line x1="126.25" y1="423.25" x2="175.75" y2="423.25" stroke="#006BB7" stroke-width="5" stroke-linecap="round"></line><line x1="175.75" y1="423.25" x2="225.25" y2="423.25" stroke="#006BB7" stroke-width="5" stroke-linecap="round"></line><line x1="225.25" y1="423.25" x2="274.75" y2="423.25" stroke="#006BB7" stroke-width="5" stroke-linecap="round"></line><line x1="274.75" y1="423.25" x2="324.25" y2="423.25" stroke="#006BB7" stroke-width="5" stroke-linecap="round"></line><line x1="324.25" y1="423.25" x2="324.25" y2="472.75" stroke="#006BB7" stroke-width="5" stroke-linecap="round"></line><line x1="324.25" y1="472.75" x2="373.75" y2="472.75" stroke="#006BB7" stroke-width="5" stroke-linecap="round"></line><line x1="373.75" y1="472.75" x2="373.75" y2="423.25" stroke="#006BB7" stroke-width="5" stroke-linecap="round"></line><line x1="373.75" y1="423.25" x2="373.75" y2="373.75" stroke="#006BB7" stroke-width="5" stroke-linecap="round"></line><line x1="373.75" y1="373.75" x2="373.75" y2="324.25" stroke="#006BB7" stroke-width="5" stroke-linecap="round"></line><line x1="373.75" y1="324.25" x2="423.25" y2="324.25" stroke="#006BB7" stroke-width="5" stroke-linecap="round"></line><line x1="423.25" y1="324.25" x2="423.25" y2="373.75" stroke="#006BB7" stroke-width="5" stroke-linecap="round"></line><line x1="423.25" y1="373.75" x2="423.25" y2="423.25" stroke="#006BB7" stroke-width="5" stroke-linecap="round"></line><line x1="423.25" y1="423.25" x2="472.75" y2="423.25" stroke="#006BB7" stroke-width="5" stroke-linecap="round"></line><line x1="472.75" y1="423.25" x2="472.75" y2="373.75" stroke="#006BB7" stroke-width="5" stroke-linecap="round"></line><line x1="472.75" y1="373.75" x2="472.75" y2="324.25" stroke="#006BB7" stroke-width="5" stroke-linecap="round"></line><line x1="472.75" y1="324.25" x2="472.75" y2="274.75" stroke="#006BB7" stroke-width="5" stroke-linecap="round"></line><line x1="472.75" y1="274.75" x2="423.25" y2="274.75" stroke="#006BB7" stroke-width="5" stroke-linecap="round"></line><line x1="423.25" y1="274.75" x2="373.75" y2="274.75" stroke="#006BB7" stroke-width="5" stroke-linecap="round"></line><line x1="373.75" y1="274.75" x2="324.25" y2="274.75" stroke="#006BB7" stroke-width="5" stroke-linecap="round"></line><line x1="324.25" y1="274.75" x2="324.25" y2="324.25" stroke="#006BB7" stroke-width="5" stroke-linecap="round"></line><line x1="324.25" y1="324.25" x2="324.25" y2="373.75" stroke="#006BB7" stroke-width="5" stroke-linecap="round"></line><line x1="324.25" y1="373.75" x2="274.75" y2="373.75" stroke="#006BB7" stroke-width="5" stroke-linecap="round"></line><line x1="274.75" y1="373.75" x2="274.75" y2="324.25" stroke="#006BB7" stroke-width="5" stroke-linecap="round"></line><line x1="274.75" y1="324.25" x2="225.25" y2="324.25" stroke="#006BB7" stroke-width="5" stroke-linecap="round"></line><line x1="225.25" y1="324.25" x2="225.25" y2="373.75" stroke="#006BB7" stroke-width="5" stroke-linecap="round"></line><line x1="225.25" y1="373.75" x2="175.75" y2="373.75" stroke="#006BB7" stroke-width="5" stroke-linecap="round"></line><line x1="175.75" y1="373.75" x2="175.75" y2="324.25" stroke="#006BB7" stroke-width="5" stroke-linecap="round"></line><line x1="175.75" y1="324.25" x2="175.75" y2="274.75" stroke="#006BB7" stroke-width="5" stroke-linecap="round"></line><line x1="175.75" y1="274.75" x2="126.25" y2="274.75" stroke="#006BB7" stroke-width="5" stroke-linecap="round"></line><line x1="126.25" y1="274.75" x2="126.25" y2="225.25" stroke="#006BB7" stroke-width="5" stroke-linecap="round"></line><line x1="126.25" y1="225.25" x2="175.75" y2="225.25" stroke="#006BB7" stroke-width="5" stroke-linecap="round"></line><line x1="175.75" y1="225.25" x2="175.75" y2="175.75" stroke="#006BB7" stroke-width="5" stroke-linecap="round"></line><line x1="175.75" y1="175.75" x2="225.25" y2="175.75" stroke="#006BB7" stroke-width="5" stroke-linecap="round"></line><line x1="225.25" y1="175.75" x2="274.75" y2="175.75" stroke="#006BB7" stroke-width="5" stroke-linecap="round"></line><line x1="274.75" y1="175.75" x2="274.75" y2="225.25" stroke="#006BB7" stroke-width="5" stroke-linecap="round"></line><line x1="274.75" y1="225.25" x2="274.75" y2="274.75" stroke="#006BB7" stroke-width="5" stroke-linecap="round"></line></svg>